<svg width="14" height="15" viewBox="0 0 14 15" fill="none" xmlns="http://www.w3.org/2000/svg">
<path d="M12.5884 12.7945C12.6188 13.0585 12.6899 13.2921 12.7711 13.4139C12.8524 13.5967 12.9234 13.6983 13.0351 13.7795C13.1367 13.8607 13.2179 13.9115 13.3499 13.9318V14.5005H9.37957L9.17649 13.8506C9.07494 13.5866 9.04448 13.2819 9.04448 12.8859L8.24227 13.6881C7.95795 13.9217 7.67363 14.1247 7.33854 14.3075C7.00344 14.4903 6.63789 14.6426 6.20125 14.7442C5.76462 14.8457 5.24675 14.8965 4.64764 14.8965C4.04853 14.8965 3.45958 14.8152 2.93155 14.6325C2.41368 14.4497 1.97704 14.1654 1.58102 13.8303C1.21546 13.4647 0.910837 13.0281 0.697595 12.4797C0.494508 11.9619 0.382812 11.3425 0.382812 10.6418C0.382812 10.0732 0.464042 9.55529 0.64682 9.05772C0.829599 8.56016 1.08346 8.15399 1.39825 7.78843C1.73334 7.42287 2.12936 7.11825 2.58631 6.8847C3.05341 6.62068 3.57128 6.46837 4.17038 6.38713L7.67363 5.86926C7.80564 5.8388 7.93765 5.8388 8.08996 5.78803C8.24228 5.75756 8.37429 5.70679 8.5063 5.60525C8.6383 5.52401 8.73985 5.42247 8.82108 5.29046C8.90231 5.13815 8.95309 4.95537 8.95309 4.72182C8.95309 4.48827 8.90231 4.28518 8.85154 4.1024C8.77031 3.89932 8.64845 3.73685 8.48598 3.60484C8.30321 3.45253 8.10011 3.34083 7.81579 3.26975C7.53147 3.18851 7.16593 3.1682 6.7496 3.1682C6.25203 3.1682 5.89662 3.21898 5.6123 3.30021C5.29751 3.40175 5.06396 3.56422 4.91165 3.71654C4.72887 3.89932 4.59687 4.1024 4.52579 4.31564L4.37347 5.06707H0.799145C0.799145 4.91475 0.829594 4.6812 0.880366 4.36642C0.931138 4.0821 1.03269 3.747 1.19516 3.38144C1.32717 3.04635 1.56072 2.6808 1.81458 2.31524C2.07859 1.94968 2.41368 1.61459 2.88078 1.2998C3.2971 1.01548 3.84545 0.751469 4.46487 0.56869C5.08428 0.385912 5.81539 0.284369 6.69882 0.253906C7.91735 0.253906 8.93277 0.385913 9.7045 0.619463C10.4559 0.883476 11.055 1.21857 11.4917 1.60443C11.908 2.02076 12.1923 2.4574 12.3446 2.95496C12.4766 3.45253 12.5477 3.93993 12.5477 4.4375V11.7486C12.5477 12.165 12.5782 12.5 12.629 12.7641L12.5884 12.7945ZM8.2829 8.07275C8.04935 8.1743 7.76503 8.27584 7.39948 8.33677L6.44496 8.51955C6.02864 8.60078 5.66307 8.67186 5.35844 8.78356C5.04366 8.8851 4.78979 9.01711 4.57655 9.16942C4.37346 9.3522 4.211 9.55529 4.10946 9.78884C4.00792 10.0224 3.95715 10.3067 3.95715 10.6723C3.95715 10.9566 4.00791 11.2206 4.08915 11.4237C4.19069 11.6572 4.3227 11.8096 4.50548 11.972C4.65779 12.104 4.84057 12.236 5.05381 12.2868C5.28736 12.368 5.52091 12.3883 5.78492 12.3883C5.91693 12.3883 6.09972 12.3579 6.3028 12.3376C6.50589 12.3071 6.71912 12.2563 6.97298 12.1853C7.20653 12.0837 7.44008 11.9822 7.67363 11.8197C7.90718 11.6877 8.11027 11.4846 8.29305 11.2511C8.49614 11.0175 8.65861 10.7332 8.76016 10.3676C8.8617 10.0325 8.94293 9.63652 8.94293 9.17958V7.77828C8.73984 7.91028 8.50629 8.01183 8.29305 8.09306L8.2829 8.07275Z" fill="white"/>
</svg>
