<svg width="14" height="15" viewBox="0 0 14 15" fill="none" xmlns="http://www.w3.org/2000/svg">
<path d="M9.59916 4.62985C9.49761 4.34553 9.33515 4.11198 9.16253 3.9292C8.95944 3.72611 8.72589 3.59411 8.46188 3.49256C8.17755 3.41133 7.84246 3.36056 7.44644 3.36056C6.84734 3.36056 6.38024 3.49256 6.02484 3.77689C5.65928 4.06121 5.37496 4.3963 5.19218 4.81263C4.98909 5.24926 4.8774 5.71637 4.80632 6.21393C4.75555 6.71149 4.70477 7.16844 4.70477 7.61523C4.70477 8.06202 4.73524 8.54943 4.78601 9.03683C4.83678 9.55471 4.93833 9.99135 5.15157 10.4077C5.33434 10.824 5.58819 11.1896 5.98421 11.4434C6.34977 11.7277 6.83719 11.8597 7.46675 11.8597C7.88308 11.8597 8.24863 11.7785 8.55326 11.5957C8.83758 11.4434 9.1016 11.2302 9.30469 10.9966C9.50777 10.7326 9.67025 10.4788 9.77179 10.1944C9.85303 9.93042 9.90379 9.67656 9.90379 9.44301H13.6406C13.6406 9.67656 13.6101 9.96088 13.539 10.3264C13.4375 10.7123 13.3055 11.0779 13.1227 11.4942C12.9399 11.8801 12.6861 12.2964 12.3916 12.7127C12.0565 13.129 11.691 13.4946 11.2239 13.7992C10.7568 14.1343 10.2389 14.3983 9.61947 14.6014C9.00005 14.8045 8.26895 14.9162 7.46675 14.9162C6.43101 14.9162 5.49682 14.7639 4.69462 14.4491C3.89243 14.114 3.21209 13.6469 2.67391 13.0275C2.12557 12.4081 1.70925 11.6567 1.42493 10.7225C1.1406 9.81872 0.988281 8.77282 0.988281 7.61523C0.988281 6.45763 1.1406 5.38127 1.45539 4.47753C1.77017 3.59411 2.20681 2.82238 2.77545 2.19281C3.3441 1.57339 4.02443 1.10629 4.82662 0.791508C5.6085 0.456415 6.51224 0.293945 7.4769 0.293945C7.89323 0.293945 8.32987 0.344717 8.79697 0.395489C9.23361 0.446261 9.6804 0.578267 10.117 0.730582C10.5537 0.913361 10.97 1.11645 11.3863 1.38046C11.7722 1.64447 12.1377 1.97957 12.4728 2.36543C12.7876 2.7513 13.0415 3.2184 13.2547 3.73627C13.4578 4.25414 13.5898 4.87355 13.6406 5.5742H9.90379C9.82255 5.20865 9.75148 4.87356 9.61947 4.6197L9.59916 4.62985Z" fill="white"/>
</svg>
