<svg width="18" height="20" viewBox="0 0 18 20" fill="none" xmlns="http://www.w3.org/2000/svg">
<path d="M4.5376 16.3421C4.85239 16.4437 5.20779 16.4944 5.62412 16.4944C6.14199 16.4944 6.55832 16.3421 6.8731 16.0273C7.18789 15.7125 7.39098 15.2962 7.49252 14.8393L0.902344 0.887207H5.28902L9.51323 10.8994L13.2196 0.887207H17.393L11.4527 14.6362C10.6708 16.4538 9.86864 17.8043 8.98521 18.6573C8.10178 19.5407 7.14727 19.9774 6.08107 19.9774C5.71551 19.9774 5.43119 19.9774 5.19764 19.9266C4.93362 19.8961 4.73054 19.8454 4.54776 19.7946L4.0502 19.6423C3.91819 19.5915 3.78618 19.5407 3.66433 19.5103V15.9867C3.89788 16.139 4.1822 16.271 4.5173 16.3523L4.5376 16.3421Z" fill="white"/>
</svg>
