<svg width="13" height="15" viewBox="0 0 13 15" fill="none" xmlns="http://www.w3.org/2000/svg">
<path d="M8.54309 9.27066C8.27908 9.3519 7.99476 9.40267 7.69013 9.47375C7.37535 9.52452 7.04024 9.57529 6.70515 9.60575C6.37006 9.65653 6.03496 9.65653 5.72018 9.65653C4.91798 9.65653 4.23764 9.57529 3.61823 9.45344C3.01912 9.30112 2.50125 9.08788 2.08493 8.78325C1.6686 8.46847 1.35381 8.05214 1.15072 7.53427C0.947633 7.03671 0.835938 6.41729 0.835938 5.69633V0.720703H4.41027V4.99568C4.41027 5.38155 4.46104 5.72679 4.56258 5.95019C4.64382 6.2142 4.79613 6.41729 4.99922 6.56961C5.20231 6.72192 5.43586 6.83362 5.75065 6.88439C6.06543 6.93516 6.42083 6.96562 6.83715 6.96562C7.45657 6.96562 7.92368 6.91485 8.28923 6.81331C8.65479 6.6813 8.93911 6.5493 9.14219 6.42744V0.720703H12.7165V14.5205H9.14219V9.07773C8.98988 9.1285 8.77664 9.20974 8.52278 9.28082L8.54309 9.27066Z" fill="white"/>
</svg>
